# This file uses centimeters as units for non-parametric coordinates.

mtllib Tornado.mtl
g default
v 0.685808 0.055151 -0.121654
v -0.671797 0.055151 0.319458
v -0.570418 0.055151 0.518425
v -0.412517 0.055151 0.676326
v -0.213551 0.055151 0.777704
v 0.007005 0.055151 0.812637
v 0.227562 0.055151 0.777704
v 0.426528 0.055151 0.676326
v 0.584429 0.055151 0.518425
v 0.685807 0.055151 0.319458
v 0.720740 0.055151 0.098902
v 1.843422 2.055151 -0.939355
v -1.890564 2.055151 0.273890
v -1.611727 2.055151 0.821133
v -1.177430 2.055151 1.255427
v -0.630193 2.055151 1.534256
v -0.023568 2.055151 1.630337
v 0.583054 2.055151 1.534256
v 1.130298 2.055151 1.255427
v 1.564591 2.055151 0.821132
v 1.843422 2.055151 0.273889
v 1.939507 2.055151 -0.332735
v 1.150063 1.013483 -0.449588
v -1.160574 1.013483 0.301183
v -0.988028 1.013483 0.639824
v -0.719282 1.013483 0.908570
v -0.380642 1.013483 1.081116
v -0.005256 1.013483 1.140571
v 0.370130 1.013483 1.081116
v 0.708770 1.013483 0.908570
v 0.977516 1.013483 0.639823
v 1.150062 1.013483 0.301183
v 1.209517 1.013483 -0.074202
vt 0.003193 0.003512
vt 0.102427 0.003512
vt 0.201661 0.003512
vt 0.300894 0.003512
vt 0.400129 0.003512
vt 0.499362 0.003512
vt 0.598596 0.003512
vt 0.697830 0.003512
vt 0.797064 0.003512
vt 0.896298 0.003512
vt 0.995532 0.003512
vt 0.003193 0.994999
vt 0.102427 0.994999
vt 0.201661 0.994999
vt 0.300894 0.994999
vt 0.400129 0.994999
vt 0.499362 0.994999
vt 0.598596 0.994999
vt 0.697830 0.994999
vt 0.797064 0.994999
vt 0.896298 0.994999
vt 0.995532 0.994999
vt 0.995532 0.478599
vt 0.003193 0.478599
vt 0.102426 0.478599
vt 0.201661 0.478599
vt 0.300894 0.478599
vt 0.400129 0.478599
vt 0.499362 0.478599
vt 0.598596 0.478599
vt 0.697830 0.478599
vt 0.797064 0.478599
vt 0.896297 0.478599
vn -0.775953 -0.491508 0.395369
vn -0.711166 -0.469031 0.523692
vn -0.706060 -0.508533 0.492822
vn -0.759805 -0.522319 0.387142
vn -0.526595 -0.431349 0.732554
vn -0.529776 -0.468438 0.707039
vn -0.279984 -0.404391 0.870676
vn -0.285112 -0.438966 0.852068
vn 0.000531 -0.392287 0.919843
vn -0.001500 -0.425511 0.904952
vn 0.281918 -0.396932 0.873480
vn 0.283723 -0.430691 0.856742
vn 0.530977 -0.417597 0.737344
vn 0.532641 -0.453488 0.714592
vn 0.718935 -0.451072 0.528835
vn 0.714189 -0.489581 0.500245
vn 0.825930 -0.492369 0.274614
vn 0.810015 -0.532746 0.245066
vn 0.844272 -0.535883 0.005924
vn 0.816774 -0.576696 -0.017369
vn 0.819148 -0.558716 -0.129742
vn 0.797368 -0.590131 -0.126294
vn -0.813808 -0.407158 0.414656
vn -0.737234 -0.391057 0.550964
vn -0.540996 -0.357643 0.761193
vn -0.285712 -0.334177 0.898162
vn 0.001106 -0.323749 0.946142
vn 0.288371 -0.327743 0.899682
vn 0.544980 -0.345628 0.763897
vn 0.743219 -0.375038 0.554051
vn 0.862343 -0.412145 0.294110
vn 0.891734 -0.452356 0.013589
vn 0.871970 -0.469676 -0.138104
s 1
g pCylinder1
usemtl initialShadingGroup
f 24/24/1 25/25/2 14/13/3 13/12/4
f 25/25/2 26/26/5 15/14/6 14/13/3
f 26/26/5 27/27/7 16/15/8 15/14/6
f 27/27/7 28/28/9 17/16/10 16/15/8
f 28/28/9 29/29/11 18/17/12 17/16/10
f 29/29/11 30/30/13 19/18/14 18/17/12
f 30/30/13 31/31/15 20/19/16 19/18/14
f 31/31/15 32/32/17 21/20/18 20/19/16
f 32/32/17 33/33/19 22/21/20 21/20/18
f 33/33/19 23/23/21 12/22/22 22/21/20
f 2/1/23 3/2/24 25/25/2 24/24/1
f 3/2/24 4/3/25 26/26/5 25/25/2
f 4/3/25 5/4/26 27/27/7 26/26/5
f 5/4/26 6/5/27 28/28/9 27/27/7
f 6/5/27 7/6/28 29/29/11 28/28/9
f 7/6/28 8/7/29 30/30/13 29/29/11
f 8/7/29 9/8/30 31/31/15 30/30/13
f 9/8/30 10/9/31 32/32/17 31/31/15
f 10/9/31 11/10/32 33/33/19 32/32/17
f 11/10/32 1/11/33 23/23/21 33/33/19
